<svg width="143" height="159" viewBox="0 0 143 159" fill="none" xmlns="http://www.w3.org/2000/svg">
<path d="M78.5745 73.8739C71.6878 73.8859 64.9552 71.8355 59.2442 67.9869V50.0958L44.0318 36.4077C44.7349 27.6679 48.7329 19.5219 55.2162 13.6191C49.9544 14.6193 44.996 16.8254 40.7302 20.0643C36.4645 23.3033 33.0074 27.4868 30.6305 32.2865C28.2536 37.0862 27.0215 42.3716 27.0308 47.7276C27.0402 53.0836 28.2908 58.3646 30.6845 63.156C33.0782 67.9474 36.5498 72.1188 40.8268 75.3428C45.1039 78.5668 50.07 80.7556 55.3353 81.7374C60.6005 82.7192 66.0217 82.4674 71.1733 81.0015C76.3249 79.5357 81.0666 76.8959 85.0263 73.2892C82.8983 73.6822 80.7385 73.8779 78.5745 73.8739Z" fill="#DAE9FF"/>
<path d="M74.3417 24.3587C89.9639 24.3587 103.892 29.4811 112.957 40.7905C112.236 29.6277 107.195 19.1847 98.904 11.6757C90.6128 4.16679 79.723 0.182301 68.5435 0.567083C57.3641 0.951865 46.774 5.67566 39.0186 13.7369C31.2633 21.7982 26.9526 32.563 27.0004 43.749C27.0004 47.2173 27.4102 53.3592 28.1848 56.5926C35.3762 38.1118 53.3272 24.3587 74.3417 24.3587Z" fill="#C7DDFF"/>
<path d="M82.9774 2.87445C87.5872 10.3559 89.8385 19.0516 89.4384 27.8301C89.0383 36.6086 86.0053 45.0634 80.7341 52.0945C75.4628 59.1255 68.1973 64.4072 59.883 67.2524C51.5687 70.0975 42.5906 70.3744 34.1168 68.0468C37.8615 74.1123 43.0312 79.1711 49.1765 82.7833C55.3217 86.3955 62.2564 88.4518 69.3774 88.7732C76.4984 89.0947 83.5901 87.6716 90.0359 84.6278C96.4816 81.5839 102.086 77.0115 106.362 71.3081C110.638 65.6047 113.456 58.943 114.57 51.9024C115.685 44.8619 115.063 37.6556 112.758 30.9103C110.453 24.1649 106.535 18.0848 101.345 13.1987C96.1547 8.31262 89.8494 4.76846 82.9774 2.87445Z" fill="#F5F9FF"/>
<path d="M106.82 69.9759C103.243 75.1421 98.594 79.4765 93.1902 82.6838C87.7864 85.8911 81.7547 87.8959 75.5061 88.5616H106.146C108.553 88.556 110.864 87.6179 112.594 85.9443C114.324 84.2707 115.338 81.9919 115.424 79.5863C115.509 77.1808 114.659 74.8357 113.052 73.0437C111.445 71.2516 109.206 70.1521 106.805 69.9759H106.82Z" fill="#C7DDFF"/>
<path d="M17.425 141.359C14.1997 141.359 11.3707 140.785 8.938 139.637C6.50533 138.462 4.61933 136.795 3.28 134.635C1.968 132.449 1.312 129.893 1.312 126.968C1.312 124.044 1.98167 121.461 3.321 119.219C4.66033 116.951 6.49167 115.201 8.815 113.971C11.1657 112.714 13.776 112.085 16.646 112.085C19.516 112.085 22.099 112.714 24.395 113.971C26.7183 115.201 28.5497 116.951 29.889 119.219C31.2283 121.461 31.898 124.044 31.898 126.968C31.898 128.772 31.4743 130.522 30.627 132.216C29.807 133.911 28.7683 135.264 27.511 136.275H32.513V141.359H17.425ZM16.646 135.906C18.368 135.906 19.8987 135.565 21.238 134.881C22.5773 134.171 23.6297 133.146 24.395 131.806C25.1603 130.44 25.543 128.841 25.543 127.009C25.543 125.178 25.1467 123.579 24.354 122.212C23.5887 120.818 22.5227 119.752 21.156 119.014C19.8167 118.276 18.3133 117.907 16.646 117.907C14.9513 117.907 13.4207 118.276 12.054 119.014C10.7147 119.752 9.64867 120.818 8.856 122.212C8.06333 123.579 7.667 125.178 7.667 127.009C7.667 129.797 8.487 131.984 10.127 133.569C11.7943 135.127 13.9673 135.906 16.646 135.906ZM43.0753 141.974C40.3966 141.974 38.3876 141.25 37.0483 139.801C35.709 138.325 35.0393 136.371 35.0393 133.938V121.679H41.2303V133.282C41.2303 135.852 42.4193 137.136 44.7973 137.136C45.836 137.136 46.8063 136.89 47.7083 136.398C48.6103 135.906 49.362 135.168 49.9633 134.184V121.679H56.1543V141.359H50.1683V138.981C49.2936 139.993 48.2276 140.744 46.9703 141.236C45.7403 141.728 44.442 141.974 43.0753 141.974ZM63.8719 118.645C62.9152 118.645 62.1089 118.331 61.4529 117.702C60.7969 117.074 60.4689 116.281 60.4689 115.324C60.4689 114.395 60.7969 113.616 61.4529 112.987C62.1089 112.331 62.9152 112.003 63.8719 112.003C64.8286 112.003 65.6349 112.331 66.2909 112.987C66.9469 113.616 67.2749 114.395 67.2749 115.324C67.2749 116.281 66.9469 117.074 66.2909 117.702C65.6349 118.331 64.8286 118.645 63.8719 118.645ZM60.7559 121.679H66.9879V141.359H60.7559V121.679ZM71.5197 111.06H77.7107V130.002L84.8857 121.679H92.0607L83.7377 131.273L93.0857 141.359H85.9107L77.7107 132.503V141.359H71.5197V111.06ZM102.934 141.974C100.255 141.974 98.246 141.25 96.9067 139.801C95.5674 138.325 94.8977 136.371 94.8977 133.938V121.679H101.089V133.282C101.089 135.852 102.278 137.136 104.656 137.136C105.694 137.136 106.665 136.89 107.567 136.398C108.469 135.906 109.22 135.168 109.822 134.184V121.679H116.013V141.359H110.027V138.981C109.152 139.993 108.086 140.744 106.829 141.236C105.599 141.728 104.3 141.974 102.934 141.974ZM131.643 141.974C127.871 141.974 124.906 141.072 122.746 139.268C120.587 137.437 119.507 134.881 119.507 131.601C119.507 128.349 120.464 125.779 122.377 123.893C124.318 122.007 127.079 121.064 130.659 121.064C133.01 121.064 135.005 121.502 136.645 122.376C138.285 123.251 139.529 124.467 140.376 126.025C141.224 127.556 141.647 129.292 141.647 131.232V133.733H125.411C125.849 136.248 128.199 137.505 132.463 137.505C133.721 137.505 135.019 137.396 136.358 137.177C137.698 136.959 138.859 136.658 139.843 136.275V140.621C138.887 141.031 137.657 141.359 136.153 141.605C134.65 141.851 133.147 141.974 131.643 141.974ZM135.784 129.715C135.702 128.403 135.21 127.392 134.308 126.681C133.406 125.943 132.163 125.574 130.577 125.574C129.019 125.574 127.789 125.943 126.887 126.681C125.985 127.419 125.493 128.431 125.411 129.715H135.784Z" fill="#C7DDFF"/>
</svg>
